<?xml version="1.0" encoding="UTF-8"?><svg id="Layer_2" xmlns="http://www.w3.org/2000/svg" xmlns:xlink="http://www.w3.org/1999/xlink" viewBox="0 0 287.66 92.31"><defs><style>.cls-1{fill:url(#Sfumatura_senza_nome_27);}.cls-2{fill:url(#linear-gradient-2);}.cls-3{fill:#fff;}.cls-4{fill:#009188;}.cls-5{fill:url(#Sfumatura_senza_nome_27-4);}.cls-6{fill:url(#linear-gradient-6);}.cls-7{fill:#3b363a;}.cls-8{fill:url(#linear-gradient-5);}.cls-9{fill:#2dbdb8;}.cls-10{fill:url(#Sfumatura_senza_nome_27-2);}.cls-11{fill:url(#linear-gradient-3);}.cls-12{fill:url(#linear-gradient);}.cls-13{fill:url(#Sfumatura_senza_nome_27-3);}.cls-14{fill:url(#linear-gradient-4);}</style><linearGradient id="Sfumatura_senza_nome_27" x1="0" y1="24.83" x2="82.59" y2="24.83" gradientUnits="userSpaceOnUse"><stop offset="0" stop-color="#2075bc"/><stop offset=".5" stop-color="#2bace2"/><stop offset="1" stop-color="#62c8d5"/></linearGradient><linearGradient id="Sfumatura_senza_nome_27-2" y1="50.5" x2="203.46" y2="50.5" xlink:href="#Sfumatura_senza_nome_27"/><linearGradient id="Sfumatura_senza_nome_27-3" x1="83.25" y1="48.68" x2="287.66" y2="48.68" xlink:href="#Sfumatura_senza_nome_27"/><linearGradient id="Sfumatura_senza_nome_27-4" x1="99.76" y1="64.33" x2="287.66" y2="64.33" xlink:href="#Sfumatura_senza_nome_27"/><linearGradient id="linear-gradient" x1="83.28" y1="53.77" x2="184.47" y2="53.77" gradientUnits="userSpaceOnUse"><stop offset="0" stop-color="#292562"/><stop offset=".5" stop-color="#2075bc"/><stop offset=".66" stop-color="#2072b9"/><stop offset=".78" stop-color="#2268b2"/><stop offset=".88" stop-color="#2458a6"/><stop offset=".98" stop-color="#284295"/><stop offset="1" stop-color="#2a3c90"/></linearGradient><linearGradient id="linear-gradient-2" x1="83.13" y1="54.79" x2="184.63" y2="54.79" xlink:href="#linear-gradient"/><linearGradient id="linear-gradient-3" x1="99.99" y1="50.59" x2="205.41" y2="50.59" xlink:href="#linear-gradient"/><linearGradient id="linear-gradient-4" x1="95.64" y1="47.94" x2="191.44" y2="47.94" xlink:href="#linear-gradient"/><linearGradient id="linear-gradient-5" x1="181.08" y1="56.1" x2="203.42" y2="56.1" xlink:href="#linear-gradient"/><linearGradient id="linear-gradient-6" x1="85" y1="48.34" x2="103.1" y2="48.34" xlink:href="#linear-gradient"/></defs><g id="Front"><path class="cls-3" d="m83.61,49.78c.11-.03.22-.05.33-.08-.2.04-.4.08-.61.12h.02s.25-.04.25-.04Z"/><path class="cls-3" d="m181.08,56.63c-30.4-8.84-59.5-9.51-77.98-8.62,29.69,8.67,58.81,9.47,77.98,8.62Z"/><path class="cls-7" d="m199.07,55.42c1.28-.23,2.55-.48,3.83-.73l-.41.07c-1.14.23-2.28.45-3.42.67Z"/><path class="cls-7" d="m83.35,49.82h-.02s-.09.01-.14.02c0,0,0,0,0,0l.15-.03Z"/><path class="cls-7" d="m83.25,49.8l-.66-.13c.19.06.38.11.57.17.03-.01.06-.02.09-.03Z"/><path class="cls-1" d="m82.59,49.67c-23.7-6.33-44.84-15.62-61.1-27.67C12.11,15.05,4.97,7.63,0,0v34.66s82.59,15.01,82.59,15.01Z"/><path class="cls-10" d="m0,39.78c52.36,33.02,138.39,39.51,203.46,13.55l-.59.1c-1.33.28-2.66.54-4,.8-5.11,1-10.15,1.81-15.08,2.47h-.02s0,0,0,0c-59.36,7.84-104.15-7.78-106.07-8.46-.04,0-.07.01-.07.01.02,0,.04-.01.06-.02-.04-.01-.06-.02-.06-.02.03-.01.07-.03.1-.04-.2-.06-.4-.12-.59-.18L0,31.69v8.1Z"/><path class="cls-9" d="m83.19,49.85s-.09.02-.13.03l.14-.02s0,0,0,0Z"/><path class="cls-9" d="m203.56,54.56s-.08.02-.12.02c.02,0,.03,0,.03,0,.03-.01.06-.02.09-.03Z"/><path class="cls-13" d="m83.97,49.7c.78-.19,1.54-.41,2.35-.56,4.8-.89,9.52-1.62,14.16-2.22l60.61-10.59,126.56,25.92c-52.64-30.35-139.03-36.31-204.41-12.45l.09.02c.21-.04.42-.08.63-.12Z"/><path class="cls-9" d="m83.19,49.85s.09-.02.14-.03l-.08-.02s-.06.02-.09.03c.01,0,.02,0,.04.01Z"/><path class="cls-5" d="m160.58,36.34l-60.81,10.59c42.63-5.5,78.07.22,95.99,4.31,28.03,6.15,53.18,16.67,71.66,31.2,4.08,3.21,7.7,6.51,10.88,9.88h9.37v-30s-.07-.04-.1-.06l-126.98-25.92Z"/><path class="cls-9" d="m83.16,49.84s-.07.02-.1.04c.04,0,.09-.02.13-.03-.01,0-.02,0-.04-.01Z"/><path class="cls-4" d="m83.61,49.78l-.25.04h.04c.07,0,.15-.03.22-.04Z"/><path class="cls-4" d="m83.59,49.87l1.41-.26c-.7.1-1.23.18-1.55.23l.14.03Z"/><path class="cls-12" d="m83.59,49.87l-.14-.03c-.07.01-.13.02-.18.03,31,9.14,66.86,11.96,101.19,7.77-1.13-.35-2.26-.69-3.39-1.02-19.17.85-48.29.05-77.98-8.62-8.74.42-15.09,1.19-18.1,1.61l-1.41.26Z"/><path class="cls-4" d="m186.41,57.4c4.25-.55,8.48-1.21,12.67-1.98,1.13-.21,2.27-.43,3.42-.67l-16.08,2.65Z"/><path class="cls-4" d="m203.48,54.56s-.03,0-.07.01c0,0,0,0,0,0,.02,0,.04,0,.06-.01Z"/><path class="cls-4" d="m83.35,49.82l-.15.03s.03,0,.05.01c.05-.01.09-.02.14-.03h-.04Z"/><path class="cls-2" d="m83.28,49.87c-.06.01-.11.02-.15.02,1.84.63,44.7,15.02,101.5,7.8-.05-.02-.11-.03-.16-.05-34.34,4.18-70.19,1.37-101.19-7.77Z"/><path class="cls-4" d="m83.2,49.85l-.14.02s.02,0,.06.02c.04,0,.09-.02.13-.03-.02,0-.03,0-.05-.01Z"/><path class="cls-4" d="m184.65,57.69c4.72-.6,9.53-1.35,14.43-2.27-4.19.77-8.42,1.43-12.67,1.98l-1.76.29Z"/><path class="cls-4" d="m90.07,48.69l5.57-1.01c-3.93.58-7.83,1.26-11.7,2.02-.11.03-.22.05-.33.08l6.46-1.09Z"/><path class="cls-11" d="m99.99,47.07c1.04.32,2.07.63,3.11.93,18.48-.89,47.59-.22,77.98,8.62,13.1-.58,23.54-2.93,24.33-3.06-.55-.19-6.78-1.62-13.97-3.34-28.8-6.61-60.79-7.15-91.45-3.16Z"/><path class="cls-4" d="m98.58,47.26c-.98.13-1.97.27-2.95.42l-5.57,1.01,8.51-1.43Z"/><path class="cls-4" d="m203.48,54.59s0,0,0,0c0,0,0,0-.01,0h.02Z"/><path class="cls-4" d="m202.9,54.69c.18-.04.37-.07.55-.11,0,0-.02,0-.03-.01-.31.06-.62.12-.93.19l.41-.07Z"/><path class="cls-4" d="m83.06,49.91s.03,0,.07-.01c0,0,0,0,0,0-.02,0-.04,0-.06.01Z"/><path class="cls-4" d="m184.63,57.69h.02s-.01,0-.02,0c0,0,0,0,0,0Z"/><path class="cls-4" d="m203.46,54.59s0,0,.01,0c0,0-.01,0-.03,0-.18.04-.37.07-.55.11l.56-.09Z"/><path class="cls-4" d="m83.94,49.7c3.87-.77,7.77-1.44,11.7-2.02l4.13-.75c-4.45.6-8.97,1.33-13.57,2.22-.78.15-1.5.37-2.26.56Z"/><path class="cls-14" d="m98.58,47.26l1.3-.22s.07.02.11.03c30.66-3.99,62.65-2.45,91.45,4.16-17.11-4.09-50.96-9.81-91.68-4.31l-4.13.75c.98-.15,1.96-.29,2.95-.42Z"/><path class="cls-4" d="m83.45,49.84c.32-.05.84-.13,1.55-.23l5.07-.92-6.46,1.09c-.07.02-.14.03-.22.05h.06Z"/><path class="cls-4" d="m83.39,49.83s-.09.02-.14.03c0,0,.02,0,.03,0,.05,0,.11-.02.18-.03h-.06Z"/><path class="cls-8" d="m184.47,57.64c.65-.08,1.29-.16,1.93-.24l16.08-2.65c.31-.06.62-.12.93-.19,0,0,0,0,0,0-.79.13-9.24,1.48-22.33,2.06,1.13.33,2.26.66,3.39,1.02Z"/><path class="cls-6" d="m85,49.62c3-.42,9.36-1.19,18.1-1.61-1.04-.3-2.07-.61-3.11-.93-.47.06-.94.12-1.41.19l-8.51,1.43-5.07.92Z"/><path class="cls-4" d="m83.25,49.86s-.08.02-.13.03c0,0,0,0,0,0,.03,0,.09-.01.15-.02,0,0-.02,0-.03,0Z"/><path class="cls-4" d="m184.47,57.64c.05.02.11.03.16.05,0,0,.01,0,.02,0l1.76-.29c-.64.08-1.29.16-1.93.24Z"/><path class="cls-4" d="m99.88,47.04l-1.3.22c.47-.06.94-.12,1.41-.19-.04-.01-.07-.02-.11-.03Z"/></g></svg>