<?xml version="1.0" encoding="utf-8"?>
<!-- Generator: Adobe Illustrator 24.0.2, SVG Export Plug-In . SVG Version: 6.00 Build 0)  -->
<svg version="1.1" id="Layer_2" xmlns="http://www.w3.org/2000/svg" xmlns:xlink="http://www.w3.org/1999/xlink" x="0px" y="0px"
	 viewBox="0 0 287.7 144" style="enable-background:new 0 0 287.7 144;" xml:space="preserve">
<style type="text/css">
	.st0{fill:#FFFFFF;}
	.st1{fill:#3B363A;}
	.st2{fill:url(#SVGID_1_);}
	.st3{fill:url(#SVGID_2_);}
	.st4{fill:#2DBDB8;}
	.st5{fill:url(#SVGID_3_);}
	.st6{fill:url(#SVGID_4_);}
	.st7{fill:#009188;}
	.st8{fill:url(#SVGID_5_);}
	.st9{fill:url(#SVGID_6_);}
	.st10{fill:url(#SVGID_7_);}
	.st11{fill:url(#SVGID_8_);}
	.st12{fill:url(#SVGID_9_);}
	.st13{fill:url(#SVGID_10_);}
	.st14{fill:#0B72BA;}
	.st15{fill:#231F20;}
	.st16{fill:url(#SVGID_11_);}
	.st17{fill:url(#SVGID_12_);}
	.st18{opacity:0.43;fill:url(#SVGID_13_);enable-background:new    ;}
	.st19{fill:url(#SVGID_14_);}
	.st20{fill:url(#SVGID_15_);}
	.st21{fill:url(#SVGID_16_);}
	.st22{fill:url(#SVGID_17_);}
	.st23{fill:url(#SVGID_18_);}
	.st24{fill:url(#SVGID_19_);}
	.st25{opacity:0.25;fill:url(#SVGID_20_);enable-background:new    ;}
	.st26{fill:url(#SVGID_21_);}
	.st27{opacity:0.17;fill:url(#SVGID_22_);enable-background:new    ;}
</style>
<g id="Front">
	<path class="st0" d="M204.6,42.5c-0.1,0-0.2,0-0.3,0.1c0.2,0,0.4-0.1,0.6-0.1h0L204.6,42.5L204.6,42.5z"/>
	<path class="st0" d="M107.2,35.7c30.4,8.8,59.5,9.5,78,8.6C155.5,35.6,126.3,34.8,107.2,35.7z"/>
	<path class="st1" d="M89.2,36.9c-1.3,0.2-2.6,0.5-3.8,0.7l0.4-0.1C86.9,37.3,88,37.1,89.2,36.9L89.2,36.9z"/>
	<path class="st1" d="M204.9,42.5L204.9,42.5c0,0,0.1,0,0.2,0l0,0L204.9,42.5L204.9,42.5z"/>
	<path class="st1" d="M205,42.5l0.7,0.1C205.5,42.6,205.3,42.5,205,42.5C205.1,42.5,205,42.5,205,42.5L205,42.5z"/>
	
		<linearGradient id="SVGID_1_" gradientUnits="userSpaceOnUse" x1="-0.58" y1="69.165" x2="82.01" y2="69.165" gradientTransform="matrix(-1 0 0 1 287.67 -1.68)">
		<stop  offset="0" style="stop-color:#2075BC"/>
		<stop  offset="0.5" style="stop-color:#2BACE2"/>
		<stop  offset="1" style="stop-color:#62C8D5"/>
	</linearGradient>
	<path class="st2" d="M205.7,42.7c23.7,6.3,44.8,15.6,61.1,27.7c9.4,6.9,16.5,14.4,21.5,22V57.7L205.7,42.7z"/>
	
		<linearGradient id="SVGID_2_" gradientUnits="userSpaceOnUse" x1="-0.58" y1="43.5014" x2="202.88" y2="43.5014" gradientTransform="matrix(-1 0 0 1 287.67 -1.68)">
		<stop  offset="0" style="stop-color:#2075BC"/>
		<stop  offset="0.5" style="stop-color:#2BACE2"/>
		<stop  offset="1" style="stop-color:#62C8D5"/>
	</linearGradient>
	<path class="st3" d="M288.3,52.5C235.9,19.5,149.9,13,84.8,39l0.6-0.1c1.3-0.3,2.7-0.5,4-0.8c5.1-1,10.1-1.8,15.1-2.5h0l0,0
		c59.4-7.8,104.2,7.8,106.1,8.5c0,0,0.1,0,0.1,0c0,0,0,0-0.1,0c0,0,0.1,0,0.1,0c0,0-0.1,0-0.1,0c0.2,0.1,0.4,0.1,0.6,0.2l77.1,16.3
		V52.5L288.3,52.5z"/>
	<path class="st4" d="M205.1,42.5c0,0,0.1,0,0.1,0L205.1,42.5L205.1,42.5L205.1,42.5z"/>
	<path class="st4" d="M84.7,37.8c0,0,0.1,0,0.1,0C84.8,37.7,84.8,37.7,84.7,37.8C84.8,37.7,84.7,37.8,84.7,37.8L84.7,37.8z"/>
	
		<linearGradient id="SVGID_3_" gradientUnits="userSpaceOnUse" x1="82.66" y1="45.3183" x2="287.07" y2="45.3183" gradientTransform="matrix(-1 0 0 1 287.67 -1.68)">
		<stop  offset="0" style="stop-color:#2075BC"/>
		<stop  offset="0.5" style="stop-color:#2BACE2"/>
		<stop  offset="1" style="stop-color:#62C8D5"/>
	</linearGradient>
	<path class="st5" d="M204.3,42.6c-0.8,0.2-1.5,0.4-2.3,0.6c-4.8,0.9-9.5,1.6-14.2,2.2L127.2,56L0.6,30.1
		c52.6,30.3,139,36.3,204.4,12.5l-0.1,0C204.7,42.5,204.5,42.6,204.3,42.6L204.3,42.6z"/>
	<path class="st4" d="M205.1,42.5c0,0-0.1,0-0.1,0L205.1,42.5C205,42.5,205.1,42.5,205.1,42.5C205.1,42.5,205.1,42.5,205.1,42.5
		L205.1,42.5z"/>
	
		<linearGradient id="SVGID_4_" gradientUnits="userSpaceOnUse" x1="99.19" y1="29.67" x2="287.09" y2="29.67" gradientTransform="matrix(-1 0 0 1 287.67 -1.68)">
		<stop  offset="0" style="stop-color:#2075BC"/>
		<stop  offset="0.5" style="stop-color:#2BACE2"/>
		<stop  offset="1" style="stop-color:#62C8D5"/>
	</linearGradient>
	<path class="st6" d="M127.7,56l60.8-10.6c-42.6,5.5-78.1-0.2-96-4.3c-28-6.2-53.2-16.7-71.7-31.2C16.8,6.7,13.1,3.4,9.9,0H0.6v30
		c0,0,0.1,0,0.1,0.1L127.7,56L127.7,56z"/>
	<path class="st4" d="M205.1,42.5c0,0,0.1,0,0.1,0C205.1,42.4,205.1,42.5,205.1,42.5C205.1,42.5,205.1,42.5,205.1,42.5L205.1,42.5z"
		/>
	<path class="st7" d="M204.6,42.5l0.3,0h0C204.8,42.5,204.7,42.5,204.6,42.5L204.6,42.5z"/>
	<path class="st7" d="M204.7,42.5l-1.4,0.3c0.7-0.1,1.2-0.2,1.6-0.2L204.7,42.5z"/>
	
		<linearGradient id="SVGID_5_" gradientUnits="userSpaceOnUse" x1="82.69" y1="40.2314" x2="183.88" y2="40.2314" gradientTransform="matrix(-1 0 0 1 287.67 -1.68)">
		<stop  offset="0" style="stop-color:#292562"/>
		<stop  offset="0.5" style="stop-color:#2075BC"/>
		<stop  offset="0.66" style="stop-color:#2072B9"/>
		<stop  offset="0.78" style="stop-color:#2268B2"/>
		<stop  offset="0.88" style="stop-color:#2458A6"/>
		<stop  offset="0.98" style="stop-color:#284295"/>
		<stop  offset="1" style="stop-color:#2A3C90"/>
	</linearGradient>
	<path class="st8" d="M204.7,42.5l0.1,0c0.1,0,0.1,0,0.2,0c-31-9.1-66.9-12-101.2-7.8c1.1,0.3,2.3,0.7,3.4,1c19.2-0.8,48.3,0,78,8.6
		c8.7-0.4,15.1-1.2,18.1-1.6L204.7,42.5L204.7,42.5z"/>
	<path class="st7" d="M101.8,34.9c-4.3,0.5-8.5,1.2-12.7,2c-1.1,0.2-2.3,0.4-3.4,0.7L101.8,34.9L101.8,34.9z"/>
	<path class="st7" d="M84.8,37.8C84.8,37.8,84.8,37.8,84.8,37.8L84.8,37.8C84.8,37.8,84.8,37.8,84.8,37.8L84.8,37.8z"/>
	<path class="st7" d="M204.9,42.5l0.2,0C205.1,42.5,205,42.5,204.9,42.5C205,42.5,204.9,42.5,204.9,42.5L204.9,42.5L204.9,42.5z"/>
	
		<linearGradient id="SVGID_6_" gradientUnits="userSpaceOnUse" x1="82.55" y1="39.2091" x2="184.05" y2="39.2091" gradientTransform="matrix(-1 0 0 1 287.67 -1.68)">
		<stop  offset="0" style="stop-color:#292562"/>
		<stop  offset="0.5" style="stop-color:#2075BC"/>
		<stop  offset="0.66" style="stop-color:#2072B9"/>
		<stop  offset="0.78" style="stop-color:#2268B2"/>
		<stop  offset="0.88" style="stop-color:#2458A6"/>
		<stop  offset="0.98" style="stop-color:#284295"/>
		<stop  offset="1" style="stop-color:#2A3C90"/>
	</linearGradient>
	<path class="st9" d="M205,42.5c0.1,0,0.1,0,0.2,0c-1.8-0.6-44.7-15-101.5-7.8c0.1,0,0.1,0,0.2,0C138.1,30.5,174,33.3,205,42.5z"/>
	<path class="st7" d="M205.1,42.5l0.1,0C205.2,42.5,205.2,42.5,205.1,42.5C205.1,42.4,205,42.5,205.1,42.5
		C205,42.5,205,42.5,205.1,42.5z"/>
	<path class="st7" d="M103.6,34.6c-4.7,0.6-9.5,1.3-14.4,2.3c4.2-0.8,8.4-1.4,12.7-2L103.6,34.6z"/>
	<path class="st7" d="M198.2,43.6l-5.6,1c3.9-0.6,7.8-1.3,11.7-2c0.1,0,0.2,0,0.3-0.1C204.6,42.5,198.2,43.6,198.2,43.6z"/>
	
		<linearGradient id="SVGID_7_" gradientUnits="userSpaceOnUse" x1="99.41" y1="43.4186" x2="204.83" y2="43.4186" gradientTransform="matrix(-1 0 0 1 287.67 -1.68)">
		<stop  offset="0" style="stop-color:#292562"/>
		<stop  offset="0.5" style="stop-color:#2075BC"/>
		<stop  offset="0.66" style="stop-color:#2072B9"/>
		<stop  offset="0.78" style="stop-color:#2268B2"/>
		<stop  offset="0.88" style="stop-color:#2458A6"/>
		<stop  offset="0.98" style="stop-color:#284295"/>
		<stop  offset="1" style="stop-color:#2A3C90"/>
	</linearGradient>
	<path class="st10" d="M188.3,45.3c-1-0.3-2.1-0.6-3.1-0.9c-18.5,0.9-47.6,0.2-78-8.6c-13.1,0.6-23.5,2.9-24.3,3.1
		c0.6,0.2,6.8,1.6,14,3.3C125.6,48.7,157.6,49.3,188.3,45.3L188.3,45.3z"/>
	<path class="st7" d="M189.7,45.1c1-0.1,2-0.3,2.9-0.4l5.6-1L189.7,45.1L189.7,45.1z"/>
	<path class="st7" d="M84.8,37.7L84.8,37.7C84.8,37.7,84.8,37.7,84.8,37.7L84.8,37.7L84.8,37.7z"/>
	<path class="st7" d="M85.4,37.6c-0.2,0-0.4,0.1-0.6,0.1c0,0,0,0,0,0c0.3-0.1,0.6-0.1,0.9-0.2L85.4,37.6L85.4,37.6z"/>
	<path class="st7" d="M205.2,42.4C205.2,42.4,205.2,42.4,205.2,42.4L205.2,42.4C205.1,42.4,205.2,42.4,205.2,42.4L205.2,42.4z"/>
	<path class="st7" d="M103.6,34.6L103.6,34.6C103.6,34.6,103.6,34.6,103.6,34.6L103.6,34.6z"/>
	<path class="st7" d="M84.8,37.7C84.8,37.7,84.8,37.7,84.8,37.7C84.8,37.7,84.8,37.7,84.8,37.7c0.2,0,0.4-0.1,0.6-0.1L84.8,37.7
		L84.8,37.7z"/>
	<path class="st7" d="M204.3,42.6c-3.9,0.8-7.8,1.4-11.7,2l-4.1,0.8c4.4-0.6,9-1.3,13.6-2.2C202.8,43,203.6,42.8,204.3,42.6
		L204.3,42.6z"/>
	
		<linearGradient id="SVGID_8_" gradientUnits="userSpaceOnUse" x1="95.05" y1="46.0591" x2="190.86" y2="46.0591" gradientTransform="matrix(-1 0 0 1 287.67 -1.68)">
		<stop  offset="0" style="stop-color:#292562"/>
		<stop  offset="0.5" style="stop-color:#2075BC"/>
		<stop  offset="0.66" style="stop-color:#2072B9"/>
		<stop  offset="0.78" style="stop-color:#2268B2"/>
		<stop  offset="0.88" style="stop-color:#2458A6"/>
		<stop  offset="0.98" style="stop-color:#284295"/>
		<stop  offset="1" style="stop-color:#2A3C90"/>
	</linearGradient>
	<path class="st11" d="M189.7,45.1l-1.3,0.2c0,0-0.1,0-0.1,0c-30.7,4-62.7,2.5-91.5-4.2c17.1,4.1,51,9.8,91.7,4.3l4.1-0.8
		C191.6,44.8,190.7,44.9,189.7,45.1L189.7,45.1z"/>
	<path class="st7" d="M204.8,42.5c-0.3,0-0.8,0.1-1.6,0.2l-5.1,0.9l6.5-1.1C204.7,42.5,204.8,42.5,204.8,42.5L204.8,42.5L204.8,42.5
		z"/>
	<path class="st7" d="M204.9,42.5c0,0,0.1,0,0.1,0c0,0,0,0,0,0C204.9,42.5,204.9,42.5,204.9,42.5L204.9,42.5L204.9,42.5z"/>
	
		<linearGradient id="SVGID_9_" gradientUnits="userSpaceOnUse" x1="180.5" y1="37.9" x2="202.83" y2="37.9" gradientTransform="matrix(-1 0 0 1 287.67 -1.68)">
		<stop  offset="0" style="stop-color:#292562"/>
		<stop  offset="0.5" style="stop-color:#2075BC"/>
		<stop  offset="0.66" style="stop-color:#2072B9"/>
		<stop  offset="0.78" style="stop-color:#2268B2"/>
		<stop  offset="0.88" style="stop-color:#2458A6"/>
		<stop  offset="0.98" style="stop-color:#284295"/>
		<stop  offset="1" style="stop-color:#2A3C90"/>
	</linearGradient>
	<path class="st12" d="M103.8,34.7c-0.6,0.1-1.3,0.2-1.9,0.2l-16.1,2.7c-0.3,0.1-0.6,0.1-0.9,0.2l0,0c0.8-0.1,9.2-1.5,22.3-2.1
		C106,35.4,104.9,35,103.8,34.7L103.8,34.7z"/>
	
		<linearGradient id="SVGID_10_" gradientUnits="userSpaceOnUse" x1="84.42" y1="45.65" x2="102.52" y2="45.65" gradientTransform="matrix(-1 0 0 1 287.67 -1.68)">
		<stop  offset="0" style="stop-color:#292562"/>
		<stop  offset="0.5" style="stop-color:#2075BC"/>
		<stop  offset="0.66" style="stop-color:#2072B9"/>
		<stop  offset="0.78" style="stop-color:#2268B2"/>
		<stop  offset="0.88" style="stop-color:#2458A6"/>
		<stop  offset="0.98" style="stop-color:#284295"/>
		<stop  offset="1" style="stop-color:#2A3C90"/>
	</linearGradient>
	<path class="st13" d="M203.3,42.7c-3,0.4-9.4,1.2-18.1,1.6c1,0.3,2.1,0.6,3.1,0.9c0.5-0.1,0.9-0.1,1.4-0.2l8.5-1.4
		C198.2,43.6,203.3,42.7,203.3,42.7z"/>
	<path class="st7" d="M205,42.5c0,0,0.1,0,0.1,0l0,0C205.1,42.4,205,42.4,205,42.5C205,42.5,205,42.5,205,42.5L205,42.5z"/>
	<path class="st7" d="M103.8,34.7c-0.1,0-0.1,0-0.2,0c0,0,0,0,0,0l-1.8,0.3C102.5,34.8,103.1,34.8,103.8,34.7L103.8,34.7z"/>
	<path class="st7" d="M188.4,45.3l1.3-0.2c-0.5,0.1-0.9,0.1-1.4,0.2C188.3,45.3,188.3,45.3,188.4,45.3z"/>
</g>
<g>
	<g id="Layer_2_1_">
		<g id="Front_1_">
			<path class="st14" d="M111.9,106.4c0,0.8-0.2,1.4-0.5,1.9c-0.3,0.5-0.7,0.9-1.2,1.2s-1.1,0.5-1.7,0.7s-1.3,0.2-1.9,0.2
				c-0.3,0-0.6,0-0.9-0.1s-0.7-0.1-1.1-0.2s-0.8-0.3-1.1-0.5c-0.4-0.2-0.7-0.5-1-0.8c-0.3-0.3-0.5-0.7-0.7-1.2
				c-0.2-0.5-0.3-1-0.3-1.6h3.3c0,0.7,0.2,1.2,0.6,1.5c0.4,0.3,0.9,0.4,1.6,0.4c0.2,0,0.4,0,0.6-0.1c0.2,0,0.4-0.1,0.6-0.2
				c0.2-0.1,0.3-0.2,0.4-0.4c0.1-0.2,0.2-0.4,0.2-0.6c0-0.2,0-0.4-0.1-0.5c-0.1-0.1-0.3-0.3-0.5-0.4c-0.2-0.1-0.5-0.2-0.9-0.3
				s-0.8-0.2-1.3-0.4c-0.5-0.1-1-0.3-1.4-0.4c-0.5-0.1-0.9-0.3-1.3-0.6c-0.4-0.3-0.7-0.6-0.9-1c-0.2-0.4-0.4-0.9-0.4-1.5
				c0-0.7,0.1-1.3,0.4-1.7c0.3-0.5,0.6-0.9,1.1-1.2c0.4-0.3,0.9-0.5,1.5-0.7c0.6-0.2,1.1-0.2,1.7-0.2c0.6,0,1.3,0.1,1.8,0.2
				c0.6,0.1,1.1,0.4,1.5,0.7c0.4,0.3,0.8,0.7,1.1,1.2c0.3,0.5,0.4,1.1,0.4,1.8h-3.1c0-0.3,0-0.5-0.1-0.7c-0.1-0.2-0.2-0.4-0.4-0.5
				c-0.2-0.1-0.4-0.2-0.6-0.3c-0.2-0.1-0.4-0.1-0.7-0.1c-0.2,0-0.3,0-0.5,0c-0.2,0-0.4,0.1-0.5,0.2c-0.2,0.1-0.3,0.2-0.4,0.3
				c-0.1,0.1-0.2,0.3-0.2,0.5c0,0.3,0.1,0.5,0.3,0.6c0.2,0.2,0.5,0.3,0.8,0.4c0.3,0.1,0.7,0.2,1.1,0.3c0.4,0.1,0.8,0.2,1.3,0.3
				c0.4,0.1,0.9,0.3,1.3,0.4c0.4,0.2,0.8,0.4,1.1,0.6c0.3,0.3,0.6,0.6,0.8,1C111.7,105.4,111.8,105.9,111.9,106.4L111.9,106.4z"/>
			<path class="st14" d="M121.4,103.9c-0.4,0.7-1.1,1.1-2,1.3v5h-3.3v-5c-1.8-0.5-2.7-1.8-2.7-3.9v-3.1h3.3v2.9c0,0.2,0,0.4,0,0.6
				c0,0.2,0.1,0.4,0.1,0.6c0.1,0.2,0.2,0.3,0.3,0.5c0.1,0.1,0.3,0.2,0.6,0.2s0.4-0.1,0.6-0.2c0.1-0.1,0.2-0.3,0.3-0.5
				c0.1-0.2,0.1-0.4,0.1-0.6c0-0.2,0-0.4,0-0.6v-2.9h3.3v3.1C122,102.4,121.8,103.2,121.4,103.9L121.4,103.9z"/>
			<path class="st14" d="M129.7,110.1v-7.9c0-0.2,0-0.4,0-0.6c0-0.2-0.1-0.4-0.1-0.6c-0.1-0.2-0.2-0.3-0.3-0.5
				c-0.1-0.1-0.3-0.2-0.6-0.2s-0.4,0.1-0.6,0.2c-0.1,0.1-0.2,0.3-0.3,0.5c-0.1,0.2-0.1,0.4-0.1,0.6c0,0.2,0,0.4,0,0.6v7.9h-3.3V102
				c0-1.4,0.4-2.5,1.1-3.1c0.7-0.7,1.8-1,3.2-1s2.5,0.3,3.2,1c0.7,0.7,1.1,1.7,1.1,3.1v8.1H129.7L129.7,110.1z"/>
			<path class="st14" d="M140.6,110.1v-4.7h-2v4.7h-3.3V102c0-1.4,0.4-2.5,1.1-3.1c0.7-0.7,1.8-1,3.2-1s2.5,0.3,3.2,1
				c0.7,0.7,1.1,1.7,1.1,3.1v8.1C143.9,110.1,140.6,110.1,140.6,110.1z M140.6,102.3c0-0.2,0-0.4,0-0.6c0-0.2-0.1-0.4-0.1-0.6
				c-0.1-0.2-0.2-0.3-0.3-0.5c-0.1-0.1-0.3-0.2-0.6-0.2s-0.4,0.1-0.6,0.2c-0.1,0.1-0.2,0.3-0.3,0.5c-0.1,0.2-0.1,0.4-0.1,0.6
				c0,0.2,0,0.4,0,0.6v0.6h2L140.6,102.3L140.6,102.3z"/>
			<path class="st14" d="M155.2,102.1c0,0.7-0.1,1.3-0.3,1.8c-0.2,0.5-0.5,0.9-0.9,1.3c-0.4,0.3-0.9,0.6-1.4,0.8s-1.2,0.3-1.8,0.3
				h-1.1v3.9h-3.3v-12h4.6c0.8,0,1.4,0.1,2,0.4c0.5,0.3,1,0.6,1.3,1c0.3,0.4,0.6,0.8,0.7,1.3C155.1,101.2,155.2,101.7,155.2,102.1
				L155.2,102.1z M152.1,102.2c0-0.3-0.1-0.5-0.2-0.7c-0.1-0.2-0.2-0.3-0.4-0.4c-0.2-0.1-0.4-0.2-0.6-0.2c-0.2,0-0.5,0-0.8,0h-0.6
				v2.8h0.4c0.3,0,0.5,0,0.8-0.1c0.3,0,0.5-0.1,0.7-0.2c0.2-0.1,0.4-0.3,0.5-0.4C152,102.8,152.1,102.5,152.1,102.2L152.1,102.2z"/>
			<path class="st14" d="M162.6,110.1v-7.9c0-0.2,0-0.4,0-0.6s-0.1-0.4-0.1-0.6c-0.1-0.2-0.2-0.3-0.3-0.5c-0.1-0.1-0.3-0.2-0.6-0.2
				s-0.4,0.1-0.6,0.2c-0.1,0.1-0.2,0.3-0.3,0.5c-0.1,0.2-0.1,0.4-0.1,0.6c0,0.2,0,0.4,0,0.6v7.9h-3.3V102c0-1.4,0.4-2.5,1.1-3.1
				c0.7-0.7,1.8-1,3.2-1s2.5,0.3,3.2,1c0.7,0.7,1.1,1.7,1.1,3.1v8.1H162.6L162.6,110.1z"/>
			<path class="st14" d="M168.2,110.1v-12h8.5v2.7h-5.3v2h4.7v2.5h-4.7v2h5.4v2.7L168.2,110.1L168.2,110.1z"/>
			<path class="st14" d="M183.9,100.9v9.3h-3.3v-9.3h-0.4c-0.4,0-0.7,0.1-0.8,0.2s-0.3,0.4-0.3,0.8l-2.1-1.1c0-0.3,0-0.6,0.1-0.9
				c0-0.3,0.1-0.6,0.3-0.8c0.2-0.2,0.4-0.4,0.7-0.6s0.7-0.2,1.2-0.2h8v2.7L183.9,100.9L183.9,100.9z"/>
			<path class="st15" d="M138.3,97.9c0,0,1.3-0.1,1.4,0c0,0-1.3,0.4-1,2.7C138.7,100.6,138.2,100.9,138.3,97.9L138.3,97.9z"/>
			
				<linearGradient id="SVGID_11_" gradientUnits="userSpaceOnUse" x1="-174.2852" y1="-531.5471" x2="-156.0792" y2="-531.5471" gradientTransform="matrix(0.9089 0.4169 0.4169 -0.9089 514.8115 -328.1372)">
				<stop  offset="0" style="stop-color:#292562"/>
				<stop  offset="0.5" style="stop-color:#2075BC"/>
				<stop  offset="0.66" style="stop-color:#2072B9"/>
				<stop  offset="0.78" style="stop-color:#2268B2"/>
				<stop  offset="0.88" style="stop-color:#2458A6"/>
				<stop  offset="0.98" style="stop-color:#284295"/>
				<stop  offset="1" style="stop-color:#2A3C90"/>
			</linearGradient>
			<path class="st16" d="M137.7,80.2c0,0,0.6,1.6,6.9,5.2c1.4,0.8,5.7,4.3,6.4,5.1c0,0,0,1.3-2,0.6c-2-0.7-5.4-1.1-5.4-1.1
				s-7-4.9-7.3-5.2c-0.3-0.3-1.6-1.2-1.3-2.9C135.4,80.1,137.7,80.2,137.7,80.2L137.7,80.2z"/>
			
				<linearGradient id="SVGID_12_" gradientUnits="userSpaceOnUse" x1="-174.3309" y1="-531.5596" x2="-156.125" y2="-531.5596" gradientTransform="matrix(0.9089 0.4169 0.4169 -0.9089 514.8115 -328.1372)">
				<stop  offset="0" style="stop-color:#292562"/>
				<stop  offset="1.000000e-02" style="stop-color:#292563;stop-opacity:0.98"/>
				<stop  offset="0.2" style="stop-color:#292D73;stop-opacity:0.63"/>
				<stop  offset="0.39" style="stop-color:#29337F;stop-opacity:0.35"/>
				<stop  offset="0.59" style="stop-color:#293888;stop-opacity:0.16"/>
				<stop  offset="0.79" style="stop-color:#293B8E;stop-opacity:4.000000e-02"/>
				<stop  offset="1" style="stop-color:#2A3C90;stop-opacity:0"/>
			</linearGradient>
			<path class="st17" d="M137.7,80.2c0,0,0.6,1.6,6.9,5.2c1.4,0.8,5.7,4.3,6.4,5.1c0,0,0,1.3-2,0.6c-2-0.7-5.4-1.1-5.4-1.1
				s-7-4.9-7.3-5.2c-0.3-0.3-1.6-1.2-1.3-2.9C135.4,80.1,137.7,80.2,137.7,80.2L137.7,80.2z"/>
			
				<linearGradient id="SVGID_13_" gradientUnits="userSpaceOnUse" x1="-174.3009" y1="-531.7979" x2="-158.4501" y2="-531.7979" gradientTransform="matrix(0.9089 0.4169 0.4169 -0.9089 514.8115 -328.1372)">
				<stop  offset="0" style="stop-color:#292562;stop-opacity:0"/>
				<stop  offset="2.000000e-02" style="stop-color:#292664;stop-opacity:6.000000e-02"/>
				<stop  offset="0.1" style="stop-color:#292C70;stop-opacity:0.31"/>
				<stop  offset="0.2" style="stop-color:#29317A;stop-opacity:0.53"/>
				<stop  offset="0.3" style="stop-color:#293582;stop-opacity:0.7"/>
				<stop  offset="0.41" style="stop-color:#293888;stop-opacity:0.83"/>
				<stop  offset="0.54" style="stop-color:#293A8C;stop-opacity:0.93"/>
				<stop  offset="0.7" style="stop-color:#293B8F;stop-opacity:0.98"/>
				<stop  offset="1" style="stop-color:#2A3C90"/>
			</linearGradient>
			<path class="st18" d="M139.4,84.8c-3.8-2.1-3-2.8-3-2.8s0.2-0.9,0.4-1.8c-0.7,0.2-1.5,0.5-1.7,1.5c-0.3,1.7,1,2.7,1.3,2.9
				s7.3,5.2,7.3,5.2s2.7,0.3,4.7,0.9C147,90,141.6,86.1,139.4,84.8L139.4,84.8z"/>
			
				<linearGradient id="SVGID_14_" gradientUnits="userSpaceOnUse" x1="-175.5509" y1="-526.3246" x2="-157.0328" y2="-526.3246" gradientTransform="matrix(0.9089 0.4169 0.4169 -0.9089 514.8115 -328.1372)">
				<stop  offset="0" style="stop-color:#2075BC"/>
				<stop  offset="0.5" style="stop-color:#2BACE2"/>
				<stop  offset="1" style="stop-color:#62C8D5"/>
			</linearGradient>
			<path class="st19" d="M155.3,78.6c0,0-0.1,5.2-8.6,4.2c-9-1-12.6,0-10.3,2c0,0-3.8-2.1-1.5-5.5c1.3-2,3.4-2,6-1.8
				C140.9,77.5,149.1,78.5,155.3,78.6L155.3,78.6z"/>
			
				<linearGradient id="SVGID_15_" gradientUnits="userSpaceOnUse" x1="-164.4437" y1="-546.6307" x2="-164.4437" y2="-539.2348" gradientTransform="matrix(0.9089 0.4169 0.4169 -0.9089 514.8115 -328.1372)">
				<stop  offset="0" style="stop-color:#DA1A5D"/>
				<stop  offset="0.5" style="stop-color:#9E2064"/>
				<stop  offset="1" style="stop-color:#9E2064"/>
			</linearGradient>
			<path class="st20" d="M142,94.1c0,0-4.4,1.3-3.4,6.5c0,0-0.1,0.1-0.1,0c-0.3-0.6-0.8-1.7-1.1-2.7C136.5,95.1,140.1,94.2,142,94.1
				z"/>
			
				<linearGradient id="SVGID_16_" gradientUnits="userSpaceOnUse" x1="-164.4087" y1="-546.6307" x2="-164.4087" y2="-539.2348" gradientTransform="matrix(0.9089 0.4169 0.4169 -0.9089 514.8115 -328.1372)">
				<stop  offset="0" style="stop-color:#6E6F72"/>
				<stop  offset="0.97" style="stop-color:#424143"/>
				<stop  offset="1" style="stop-color:#351840"/>
			</linearGradient>
			<path class="st21" d="M142,94.1c0,0-4.4,1.3-3.4,6.5c0,0-0.1,0.1-0.1,0c-0.3-0.6-1.1-2.1-1.1-3.1C137.2,94.5,140.1,94.2,142,94.1
				z"/>
			
				<linearGradient id="SVGID_17_" gradientUnits="userSpaceOnUse" x1="-167.4509" y1="-538.3257" x2="-154.4142" y2="-538.3257" gradientTransform="matrix(0.9089 0.4169 0.4169 -0.9089 514.8115 -328.1372)">
				<stop  offset="0" style="stop-color:#6E6F72"/>
				<stop  offset="0.5" style="stop-color:#818285"/>
				<stop  offset="1" style="stop-color:#6E6F72"/>
			</linearGradient>
			<path class="st22" d="M151.4,93.6c1.2-1.5-0.5-3.3-0.5-3.3c0.5,1.6-3.6-0.8-8.6-0.4c-3.6,0.3-4.8,3-4.8,3l0,0c-1.2,2.4,0,5,0,5
				C138.5,90.7,149.3,96.3,151.4,93.6L151.4,93.6z"/>
			
				<linearGradient id="SVGID_18_" gradientUnits="userSpaceOnUse" x1="-167.4509" y1="-538.3257" x2="-154.3965" y2="-538.3257" gradientTransform="matrix(0.9089 0.4169 0.4169 -0.9089 514.8115 -328.1372)">
				<stop  offset="0" style="stop-color:#818285;stop-opacity:0"/>
				<stop  offset="4.000000e-02" style="stop-color:#848588;stop-opacity:0.19"/>
				<stop  offset="0.11" style="stop-color:#888A8D;stop-opacity:0.44"/>
				<stop  offset="0.18" style="stop-color:#8C8E91;stop-opacity:0.64"/>
				<stop  offset="0.25" style="stop-color:#8F9194;stop-opacity:0.8"/>
				<stop  offset="0.32" style="stop-color:#919396;stop-opacity:0.91"/>
				<stop  offset="0.4" style="stop-color:#929497;stop-opacity:0.98"/>
				<stop  offset="0.5" style="stop-color:#939598"/>
				<stop  offset="0.58" style="stop-color:#929497;stop-opacity:0.97"/>
				<stop  offset="0.66" style="stop-color:#919295;stop-opacity:0.89"/>
				<stop  offset="0.74" style="stop-color:#8E9093;stop-opacity:0.75"/>
				<stop  offset="0.83" style="stop-color:#8B8C8F;stop-opacity:0.56"/>
				<stop  offset="0.91" style="stop-color:#86878A;stop-opacity:0.31"/>
				<stop  offset="1" style="stop-color:#818285;stop-opacity:1.000000e-02"/>
				<stop  offset="1" style="stop-color:#818285;stop-opacity:0"/>
			</linearGradient>
			<path class="st23" d="M151.4,93.6c1.2-1.4-0.5-3.3-0.5-3.3c0.5,1.6-3.6-0.8-8.6-0.4c-3.6,0.3-4.8,3-4.8,3l0,0c-1.2,2.4,0,5,0,5
				C138.5,90.7,149,96.2,151.4,93.6L151.4,93.6z"/>
			
				<linearGradient id="SVGID_19_" gradientUnits="userSpaceOnUse" x1="-175.5344" y1="-526.3289" x2="-157.2344" y2="-526.3289" gradientTransform="matrix(0.9089 0.4169 0.4169 -0.9089 514.8115 -328.1372)">
				<stop  offset="0" style="stop-color:#D9E7BC"/>
				<stop  offset="1" style="stop-color:#62C8D5"/>
			</linearGradient>
			<path class="st24" d="M144.2,79.8c9.6,1.3,11.1-1.2,11.1-1.2c-5.6,0.1-14.4-1.1-14.4-1.1c-2.6-0.2-4.6-0.2-6,1.8
				c-2.3,3.4,1.5,5.5,1.5,5.5C132.2,82.1,134.3,78.5,144.2,79.8z"/>
			
				<linearGradient id="SVGID_20_" gradientUnits="userSpaceOnUse" x1="-170.6354" y1="-534.3181" x2="-160.9205" y2="-517.4896" gradientTransform="matrix(0.9089 0.4169 0.4169 -0.9089 514.8115 -328.1372)">
				<stop  offset="0" style="stop-color:#2075BC;stop-opacity:0"/>
				<stop  offset="6.000000e-02" style="stop-color:#488DC5;stop-opacity:0.18"/>
				<stop  offset="0.15" style="stop-color:#7FAFD2;stop-opacity:0.43"/>
				<stop  offset="0.24" style="stop-color:#ACCBDD;stop-opacity:0.63"/>
				<stop  offset="0.32" style="stop-color:#D0E1E5;stop-opacity:0.79"/>
				<stop  offset="0.39" style="stop-color:#E9F1EB;stop-opacity:0.91"/>
				<stop  offset="0.45" style="stop-color:#F9FAEF;stop-opacity:0.98"/>
				<stop  offset="0.5" style="stop-color:#FFFEF1"/>
				<stop  offset="0.59" style="stop-color:#FDFDF0;stop-opacity:0.99"/>
				<stop  offset="0.66" style="stop-color:#F7FBEF;stop-opacity:0.95"/>
				<stop  offset="0.72" style="stop-color:#EDF8ED;stop-opacity:0.89"/>
				<stop  offset="0.77" style="stop-color:#DFF3EB;stop-opacity:0.8"/>
				<stop  offset="0.82" style="stop-color:#CDEDE8;stop-opacity:0.69"/>
				<stop  offset="0.87" style="stop-color:#B7E5E4;stop-opacity:0.55"/>
				<stop  offset="0.92" style="stop-color:#9DDCDF;stop-opacity:0.38"/>
				<stop  offset="0.96" style="stop-color:#80D2DA;stop-opacity:0.19"/>
				<stop  offset="1" style="stop-color:#62C8D5;stop-opacity:0"/>
			</linearGradient>
			<path class="st25" d="M155.3,78.6L155.3,78.6c0,0-1.5,2.5-11.1,1.2c-7.6-1-10.6,0.9-9.7,3c0.3,0.7,0.8,1.2,1.2,1.5
				c0.2,0.2,0.4,0.3,0.7,0.5c-2.2-2,1.3-3,10.3-2C155.1,83.7,155.3,78.6,155.3,78.6L155.3,78.6z"/>
			
				<linearGradient id="SVGID_21_" gradientUnits="userSpaceOnUse" x1="-167.4509" y1="-538.3348" x2="-155.0797" y2="-538.3348" gradientTransform="matrix(0.9089 0.4169 0.4169 -0.9089 514.8115 -328.1372)">
				<stop  offset="0" style="stop-color:#818285;stop-opacity:0"/>
				<stop  offset="6.000000e-02" style="stop-color:#7F8083;stop-opacity:9.000000e-02"/>
				<stop  offset="0.36" style="stop-color:#77787B;stop-opacity:0.48"/>
				<stop  offset="0.63" style="stop-color:#727376;stop-opacity:0.76"/>
				<stop  offset="0.85" style="stop-color:#6F7073;stop-opacity:0.94"/>
				<stop  offset="1" style="stop-color:#6E6F72"/>
			</linearGradient>
			<path class="st26" d="M149.8,92.7c1.7,0.2,1.8-0.9,1.8-1c-0.2-0.8-0.7-1.4-0.7-1.4c0.5,1.6-3.6-0.8-8.6-0.4c-3.6,0.3-4.8,3-4.8,3
				l0,0c-1.2,2.4,0,5,0,5C134.9,89.4,147.9,92.5,149.8,92.7L149.8,92.7z"/>
			
				<linearGradient id="SVGID_22_" gradientUnits="userSpaceOnUse" x1="-166.9409" y1="-538.3642" x2="-154.377" y2="-538.3642" gradientTransform="matrix(0.9089 0.4169 0.4169 -0.9089 514.8115 -328.1372)">
				<stop  offset="0" style="stop-color:#939598;stop-opacity:0"/>
				<stop  offset="3.000000e-02" style="stop-color:#A1A3A6;stop-opacity:0.14"/>
				<stop  offset="8.000000e-02" style="stop-color:#B7B8BA;stop-opacity:0.34"/>
				<stop  offset="0.13" style="stop-color:#CACBCD;stop-opacity:0.51"/>
				<stop  offset="0.18" style="stop-color:#DADBDC;stop-opacity:0.66"/>
				<stop  offset="0.24" style="stop-color:#E7E8E8;stop-opacity:0.79"/>
				<stop  offset="0.3" style="stop-color:#F2F2F2;stop-opacity:0.88"/>
				<stop  offset="0.36" style="stop-color:#F9F9F9;stop-opacity:0.95"/>
				<stop  offset="0.42" style="stop-color:#FDFDFD;stop-opacity:0.99"/>
				<stop  offset="0.5" style="stop-color:#FFFFFF"/>
				<stop  offset="0.56" style="stop-color:#FDFDFD;stop-opacity:0.98"/>
				<stop  offset="0.62" style="stop-color:#F7F8F8;stop-opacity:0.93"/>
				<stop  offset="0.69" style="stop-color:#EFEFEF;stop-opacity:0.85"/>
				<stop  offset="0.75" style="stop-color:#E2E3E3;stop-opacity:0.74"/>
				<stop  offset="0.82" style="stop-color:#D2D3D4;stop-opacity:0.59"/>
				<stop  offset="0.88" style="stop-color:#BEC0C1;stop-opacity:0.41"/>
				<stop  offset="0.95" style="stop-color:#A8A9AC;stop-opacity:0.2"/>
				<stop  offset="1" style="stop-color:#939598;stop-opacity:0"/>
			</linearGradient>
			<path class="st27" d="M150.9,90.3c0,0,0.5,0.6,0.7,1.4c0,0.1-0.1,1.2-1.8,1c-1.9-0.2-14.9-3.7-12.4,5.2c1.1-7.3,11.5-1.7,14-4.3
				C152.7,92.3,150.9,90.3,150.9,90.3z"/>
		</g>
	</g>
</g>
</svg>
